<svg width="74" height="71" viewBox="0 0 74 71" fill="none" xmlns="http://www.w3.org/2000/svg">
<g id="Group">
<path id="Vector" d="M0 9.12372H73.0749V67.1473C73.0749 69.2739 71.3509 71.0001 69.227 71.0001H3.84792C1.72401 71.0001 0 69.2739 0 67.1473V9.12372Z" fill="url(#paint0_linear_34_34)"/>
<path id="Vector_2" d="M59.4517 0.537109H13.6232L0 9.12364H73.0749L59.4517 0.537109Z" fill="url(#paint1_linear_34_34)"/>
<path id="Vector_3" d="M50.6094 5.15515L47.4014 3.13531H25.6735L22.4743 5.15515H50.6094Z" fill="#C13D3D"/>
<path id="Vector_4" d="M50.6717 31.2262C47.117 27.667 41.3407 27.667 37.7771 31.2262L36.5419 32.4719L35.2978 31.2262C33.5116 29.4466 31.1832 28.5568 28.8461 28.5568C26.5089 28.5568 24.1806 29.4466 22.4032 31.2262C18.8397 34.7942 18.8397 40.569 22.4032 44.146L23.6385 45.3828L36.5419 58.2937L49.4364 45.3828L50.6717 44.146C52.4579 42.3664 53.3465 40.0262 53.3465 37.6861C53.3465 35.3459 52.4579 33.0057 50.6717 31.2262Z" fill="#9D2143"/>
</g>
<defs>
<linearGradient id="paint0_linear_34_34" x1="15.0895" y1="17.4522" x2="59.1789" y2="61.4944" gradientUnits="userSpaceOnUse">
<stop stop-color="#FFA9A9"/>
<stop offset="1" stop-color="#FC7777"/>
</linearGradient>
<linearGradient id="paint1_linear_34_34" x1="36.5419" y1="-3.14665" x2="36.5419" y2="12.4159" gradientUnits="userSpaceOnUse">
<stop stop-color="#FFA9A9"/>
<stop offset="1" stop-color="#FC7777"/>
</linearGradient>
</defs>
</svg>
